<?xml version="1.0" encoding="UTF-8" standalone="no"?>
<!-- Created with Inkscape (http://www.inkscape.org/) -->

<svg
   xmlns:dc="http://purl.org/dc/elements/1.1/"
   xmlns:cc="http://creativecommons.org/ns#"
   xmlns:rdf="http://www.w3.org/1999/02/22-rdf-syntax-ns#"
   xmlns:svg="http://www.w3.org/2000/svg"
   xmlns="http://www.w3.org/2000/svg"
   xmlns:sodipodi="http://sodipodi.sourceforge.net/DTD/sodipodi-0.dtd"
   xmlns:inkscape="http://www.inkscape.org/namespaces/inkscape"
   width="139mm"
   height="65mm"
   viewBox="0 0 492.51948 230.31482"
   id="svg4394"
   version="1.1"
   inkscape:version="0.91 r13725"
   sodipodi:docname="logo_mono.svg">
  <defs
     id="defs4396" />
  <sodipodi:namedview
     id="base"
     pagecolor="#ffffff"
     bordercolor="#666666"
     borderopacity="1.0"
     inkscape:pageopacity="0.0"
     inkscape:pageshadow="2"
     inkscape:zoom="2.0081833"
     inkscape:cx="125.47535"
     inkscape:cy="108.27816"
     inkscape:document-units="px"
     inkscape:current-layer="layer1"
     showgrid="false"
     inkscape:window-width="1920"
     inkscape:window-height="1001"
     inkscape:window-x="0"
     inkscape:window-y="25"
     inkscape:window-maximized="1"
     inkscape:snap-text-baseline="true"
     objecttolerance="10000"
     guidetolerance="10000" />
  <metadata
     id="metadata4399">
    <rdf:RDF>
      <cc:Work
         rdf:about="">
        <dc:format>image/svg+xml</dc:format>
        <dc:type
           rdf:resource="http://purl.org/dc/dcmitype/StillImage" />
        <dc:title></dc:title>
      </cc:Work>
    </rdf:RDF>
  </metadata>
  <g
     inkscape:label="Layer 1"
     inkscape:groupmode="layer"
     id="layer1"
     transform="translate(0,-822.04784)">
    <g
       style="font-style:normal;font-weight:normal;font-size:40px;line-height:125%;font-family:sans-serif;letter-spacing:0px;word-spacing:0px;fill:#ffffff;fill-opacity:1;stroke:none;stroke-width:1px;stroke-linecap:butt;stroke-linejoin:miter;stroke-opacity:1"
       id="text3336-4"
       transform="translate(-108.18789,642.74652)">
      <path
         d="m 210.76417,206.67055 -53.33705,53.33706 53.33705,53.33705 q 1.90848,1.90848 1.90848,4.52009 0,2.61161 -1.90848,4.52009 l -16.67411,16.67411 q -1.90848,1.90848 -4.52009,1.90848 -2.6116,0 -4.52008,-1.90848 L 110.51864,264.5277 q -1.90849,-1.90849 -1.90849,-4.52009 0,-2.61161 1.90849,-4.52009 l 74.53125,-74.53125 q 1.90848,-1.90848 4.52008,-1.90848 2.61161,0 4.52009,1.90848 l 16.67411,16.67411 q 1.90848,1.90848 1.90848,4.52008 0,2.61161 -1.90848,4.52009 z"
         style="font-style:normal;font-variant:normal;font-weight:normal;font-stretch:normal;font-size:180px;font-family:FontAwesome;-inkscape-font-specification:FontAwesome;fill:#ffffff;fill-opacity:1"
         id="path4287-0"
         inkscape:connector-curvature="0" />
    </g>
    <g
       style="font-style:normal;font-variant:normal;font-weight:bold;font-stretch:normal;font-size:40px;line-height:125%;font-family:'PT Sans';-inkscape-font-specification:'PT Sans Bold';letter-spacing:0px;word-spacing:0px;fill:#ffffff;fill-opacity:1;stroke:none;stroke-width:1px;stroke-linecap:butt;stroke-linejoin:miter;stroke-opacity:1"
       id="text3352-4"
       transform="translate(-108.18789,250.52322)">
      <path
         d="m 277.03569,595.87277 34.25,0 0,131.27512 c 0,6.66667 -0.75,13 -2.25,19 -1.5,6 -4,11.33333 -7.5,16 -3.33333,4.5 -7.66667,8.16667 -13,11 -5.33333,2.66667 -11.83333,4 -19.5,4 -4.83333,0 -10.08333,-0.5 -15.75,-1.5 -5.66667,-1 -10.58333,-2.41667 -14.75,-4.25 l 7.5,-28 c 4.33333,2.16667 9.25,3.25 14.75,3.25 7,0 11.41667,-2.58333 13.25,-7.75 2,-5.16667 3,-12 3,-20.5 z"
         style="font-style:normal;font-variant:normal;font-weight:bold;font-stretch:normal;font-size:250px;font-family:'PT Sans';-inkscape-font-specification:'PT Sans Bold';fill:#ffffff;fill-opacity:1"
         id="path4202-5"
         inkscape:connector-curvature="0"
         sodipodi:nodetypes="ccssccssccscsc" />
      <path
         d="m 404.53178,682.89789 65.25,0 0,78 q -10.5,8.75 -25.25,12.75 -14.5,4 -28.75,4 -16.75,0 -31.25,-5.25 -14.25,-5.25 -24.75,-16.25 -10.5,-11.25 -16.5,-28.5 -6,-17.25 -6,-41 0,-24.75 7,-42 7.25,-17.5 18.75,-28.25 11.75,-11 26.25,-15.75 14.5,-5 29.5,-5 15,0 26.25,2.25 11.5,2.25 18.25,4.75 l -7,28.75 q -6.25,-2.5 -14,-3.75 -7.75,-1.5 -19.75,-1.5 -10.75,0 -19.75,3.25 -9,3.25 -15.75,10.75 -6.5,7.25 -10.25,18.75 -3.5,11.5 -3.5,28 0,15.75 3.5,27.25 3.5,11.25 9.75,18.75 6.25,7.25 14.5,10.75 8.5,3.5 18,3.5 6.5,0 12.75,-1.5 6.25,-1.75 10.5,-5 l 0,-33 -37.75,-4 0,-20.75 z"
         style="font-style:normal;font-variant:normal;font-weight:bold;font-stretch:normal;font-size:250px;font-family:'PT Sans';-inkscape-font-specification:'PT Sans Bold';fill:#ffffff;fill-opacity:1"
         id="path4204-2"
         inkscape:connector-curvature="0" />
    </g>
    <g
       style="font-style:normal;font-weight:normal;font-size:40px;line-height:125%;font-family:sans-serif;letter-spacing:0px;word-spacing:0px;fill:#ffffff;fill-opacity:1;stroke:none;stroke-width:1px;stroke-linecap:butt;stroke-linejoin:miter;stroke-opacity:1"
       id="text3356-7"
       transform="translate(-108.18789,642.74652)">
      <path
         d="m 597.84389,332.69029 -74.53125,74.53125 q -1.90849,1.90849 -4.52009,1.90849 -2.61161,0 -4.52009,-1.90849 l -16.67411,-16.6741 q -1.90848,-1.90848 -1.90848,-4.52009 0,-2.61161 1.90848,-4.52009 l 53.33705,-53.33705 -53.33705,-53.33706 q -1.90848,-1.90848 -1.90848,-4.52009 0,-2.6116 1.90848,-4.52009 l 16.67411,-16.6741 q 1.90848,-1.90849 4.52009,-1.90849 2.6116,0 4.52009,1.90849 l 74.53125,74.53125 q 1.90848,1.90848 1.90848,4.52009 0,2.6116 -1.90848,4.52008 z"
         style="font-size:180px;fill:#ffffff;fill-opacity:1"
         id="path4290-9"
         inkscape:connector-curvature="0" />
    </g>
  </g>
</svg>
